<?xml version="1.0" encoding="UTF-8"?>
<svg version="1.1" xmlns="http://www.w3.org/2000/svg" width="933" height="915">
<path d="M0 0 C3.4375 1.75 3.4375 1.75 6 4 C6.78761719 4.60585937 7.57523438 5.21171875 8.38671875 5.8359375 C18.56201955 14.26212083 24.31187178 25.90598808 29 38 C31.04773383 36.15703955 32.40492465 34.38608199 33.9375 32.0625 C35.78091314 29.32531079 37.51329204 27.1551469 40 25 C40.66 25 41.32 25 42 25 C42 24.34 42 23.68 42 23 C43.3125 21.375 43.3125 21.375 45 20 C45.99 20 46.98 20 48 20 C48.33 19.01 48.66 18.02 49 17 C56.10687484 12.7358751 63.7243739 10.19913296 72 11 C77.79283005 12.70650505 80.8726265 14.94656969 83.75 20.1875 C85.73338415 25.2303597 85.0054479 29.52443506 83.01953125 34.4140625 C80.20840864 40.29103728 76.74129538 45.67733235 73 51 C73.7425 51 74.485 51 75.25 51 C77.5 51 79.75 51 82 51 C82.33 51.66 82.66 52.32 83 53 C84.03447266 52.85691406 84.03447266 52.85691406 85.08984375 52.7109375 C92.77045418 51.80485726 98.7187077 52.57290257 106 55 C106.928125 55.144375 107.85625 55.28875 108.8125 55.4375 C112.03812454 56.00672786 114.89536106 56.96512035 118 58 C121.85040477 58.94212032 125.71476054 59.78579342 129.625 60.4375 C132.24755939 61.05863249 134.56177696 62.09228574 137.01171875 63.19921875 C139.14963172 64.06026425 141.26840359 64.6138724 143.5 65.1875 C148.83248971 66.71917258 153.49217042 69.28027405 158.31689453 71.94921875 C163.18709729 74.62604654 168.14513652 76.79258146 173.3046875 78.86328125 C177.40000783 80.59043808 181.17376709 82.75040578 185 85 C185.92425781 85.52464844 186.84851563 86.04929687 187.80078125 86.58984375 C215.53874949 102.45552986 240.61683529 124.54114528 256 153 C256 153.99 256 154.98 256 156 C256.66 156 257.32 156 258 156 C261 162 261 162 262.3984375 164.859375 C263.92934588 167.86144899 265.58089352 170.7350085 267.3125 173.625 C272.30059209 182.13843144 276.76534125 190.68086138 279.9453125 200.0390625 C280.86254127 202.61409735 281.8559848 205.12931179 282.88671875 207.66015625 C285.0286667 212.97939298 286.88869834 218.36906752 288.6875 223.8125 C288.99494141 224.72708984 289.30238281 225.64167969 289.61914062 226.58398438 C290.0609668 227.91333008 290.0609668 227.91333008 290.51171875 229.26953125 C290.77428467 230.05948486 291.03685059 230.84943848 291.30737305 231.66333008 C292.02763053 234.09321529 292.53699541 236.5093636 293 239 C293.28563983 240.37626463 293.57727762 241.75129849 293.875 243.125 C294.03830811 243.88047119 294.20161621 244.63594238 294.36987305 245.41430664 C294.94079334 247.94329603 294.94079334 247.94329603 295.74194336 250.10668945 C299.12342591 260.09136547 298.56949842 270.64695067 298.6875 281.0625 C298.72075884 283.02801628 298.75525601 284.99351201 298.79101562 286.95898438 C298.94649554 296.01224179 299.02941707 305.06655753 299.05859375 314.12109375 C299.06267746 314.84933853 299.06676117 315.57758331 299.07096863 316.32789612 C299.07567979 325.51309952 297.31009865 330.71609016 292.3984375 338.37109375 C289.66885855 343.5023972 289 349.24190845 289 355 C288.34 355 287.68 355 287 355 C286.979375 356.2375 286.95875 357.475 286.9375 358.75 C286.25039285 365.27751797 282.82689036 370.77669237 279 376 C278.34 376 277.68 376 277 376 C276.88978516 376.80050781 276.88978516 376.80050781 276.77734375 377.6171875 C275.69417094 380.93746595 273.69200094 383.41229302 271.5625 386.125 C271.11946533 386.69468506 270.67643066 387.26437012 270.2199707 387.85131836 C265.20595054 394.17788146 259.69786553 400.10342891 253.33203125 405.08984375 C250.8138062 406.96275029 250.8138062 406.96275029 249 410 C249.33 410.99 249.66 411.98 250 413 C250.99 413 251.98 413 253 413 C254.36639342 414.6396721 255.6949419 416.31110128 257 418 C257.78375 418.61875 258.5675 419.2375 259.375 419.875 C262.67394427 422.54557393 265.52348038 425.54478707 268 429 C268 429.66 268 430.32 268 431 C268.99 431.33 269.98 431.66 271 432 C272.73980503 433.98451174 274.34658594 435.963763 275.9375 438.0625 C276.4104248 438.67722168 276.88334961 439.29194336 277.37060547 439.92529297 C278.38543257 441.24818665 279.39670135 442.57381602 280.40478516 443.90185547 C282.04458731 446.05864453 283.69939449 448.20334463 285.35546875 450.34765625 C286.44616396 451.77278626 287.53602758 453.19855314 288.625 454.625 C289.14570068 455.29926025 289.66640137 455.97352051 290.20288086 456.66821289 C290.6850708 457.30621826 291.16726074 457.94422363 291.6640625 458.6015625 C292.09154785 459.16182129 292.5190332 459.72208008 292.95947266 460.29931641 C294.10866763 462.17761114 294.57425065 463.85011258 295 466 C295.66 466 296.32 466 297 466 C301 472.75 301 472.75 301 475 C301.66 475 302.32 475 303 475 C308 485 308 485 313 495 C313.8353125 496.546875 313.8353125 496.546875 314.6875 498.125 C316 501 316 501 316 505 C316.66 505 317.32 505 318 505 C318.66666667 507 319.33333333 509 320 511 C320.350625 511.969375 320.70125 512.93875 321.0625 513.9375 C323.0006765 520.26887655 323.13378929 526.44432479 323 533 C323.66 532.7525 324.32 532.505 325 532.25 C329.32727835 531.88939347 332.47695933 533.54566414 336 536 C338.71611763 538.50527745 339.22049132 540.59776095 339.46875 544.16015625 C339.50263442 545.7939527 339.51190807 547.4283956 339.5 549.0625 C339.49718018 549.91360352 339.49436035 550.76470703 339.49145508 551.64160156 C339.31041056 558.71377938 337.57564339 563.890267 334 570 C333.43688499 571.26147597 332.8923499 572.53157486 332.375 573.8125 C329.66149252 580.1029037 326.3536026 586.03509419 323 592 C322.34 592 321.68 592 321 592 C321 592.99 321 593.98 321 595 C320.34 595 319.68 595 319 595 C318.73445312 595.58265625 318.46890625 596.1653125 318.1953125 596.765625 C313.57718668 605.39820006 304.71562988 612.97521876 297.0625 618.875 C291.71583223 623.04540086 287.43058868 627.89461224 283 633 C281.37446717 634.70680947 279.70884005 636.37660195 278 638 C277.42636719 638.56847656 276.85273437 639.13695312 276.26171875 639.72265625 C269.77658768 645.86582184 262.42369447 650.27384972 254.82519531 654.87646484 C252.46245822 656.3308945 250.16582679 657.87274882 247.875 659.4375 C244.69413786 661.58819656 241.46918992 663.34082221 238 665 C236.39125 665.9590625 236.39125 665.9590625 234.75 666.9375 C231.93800454 668.57627881 229.10427017 669.78227948 226.0625 670.9375 C222.79503562 672.19232442 219.96861571 673.55266427 217.0625 675.5 C213.11298683 678.11423988 208.99039405 679.60322485 204.515625 681.10546875 C202.04151983 681.9145824 202.04151983 681.9145824 200.03125 683.0546875 C197.45323145 684.25445767 195.06405898 684.55475882 192.25 684.9375 C187.12123724 685.73654637 182.77872072 687.05836765 178 689 C170.689212 691.740223 163.65633747 693.57840383 155.91015625 694.60546875 C151.49529765 695.2039932 147.4015837 696.11587425 143.1875 697.5625 C142.39730469 697.83191406 141.60710937 698.10132813 140.79296875 698.37890625 C140.20128906 698.58386719 139.60960937 698.78882813 139 699 C139.3267961 701.33425788 139.66140041 703.66742506 140 706 C140.103125 707.093125 140.20625 708.18625 140.3125 709.3125 C140.539375 710.199375 140.76625 711.08625 141 712 C142.32101778 712.69074905 143.65840056 713.35012835 145 714 C169.17462249 731.68439133 169.17462249 731.68439133 171.5625 742.5625 C170.52837708 747.0436993 167.58271492 749.9599302 163.8125 752.4375 C158.53007053 753.49398589 153.07898782 752.69299594 148 751 C148 750.34 148 749.68 148 749 C147.195625 748.814375 146.39125 748.62875 145.5625 748.4375 C140.68076139 746.46767565 137.02326247 743.34377814 133 740 C129.49845909 743.30519282 126.66008953 746.9366913 123.75 750.75 C110.32368511 768.06406181 110.32368511 768.06406181 102.578125 769.42578125 C95.73844315 770.24614772 95.73844315 770.24614772 92 769 C89.04515377 766.21400213 88.08086729 764.46094353 87.375 760.4375 C87.62957586 754.4086807 91.1193139 749.14408233 94 744 C93.26394531 744.20496094 92.52789062 744.40992188 91.76953125 744.62109375 C90.79371094 744.89050781 89.81789063 745.15992188 88.8125 745.4375 C87.36810547 745.83775391 87.36810547 745.83775391 85.89453125 746.24609375 C79.58341003 747.88988106 73.26476335 749.49043544 67.125 746.6875 C65 745 65 745 63 742 C63.29704962 737.84130536 63.66938148 735.49592778 66 732 C66.66 732 67.32 732 68 732 C68.18175781 731.42378906 68.36351562 730.84757813 68.55078125 730.25390625 C70.67409659 726.95160719 73.77490566 725.64874296 77.1875 723.9375 C77.83525391 723.59912109 78.48300781 723.26074219 79.15039062 722.91210938 C88.43077858 718.11894197 98.00750492 714.97074178 108 712 C107.67 708.7 107.34 705.4 107 702 C104.35409986 701.97315321 101.70846904 701.95323643 99.0625 701.9375 C98.30775391 701.92912109 97.55300781 701.92074219 96.77539062 701.91210938 C94.85005687 701.90347559 92.92464419 701.94775667 91 702 C90.67 702.33 90.34 702.66 90 703 C88.14630389 703.08737645 86.28932459 703.10698153 84.43359375 703.09765625 C83.30888672 703.09443359 82.18417969 703.09121094 81.02539062 703.08789062 C79.84138672 703.07951172 78.65738281 703.07113281 77.4375 703.0625 C76.24962891 703.05798828 75.06175781 703.05347656 73.83789062 703.04882812 C70.89187774 703.03699675 67.94596319 703.02051287 65 703 C65 702.34 65 701.68 65 701 C64.21238281 701.09539063 63.42476563 701.19078125 62.61328125 701.2890625 C54.39483488 702.12549609 47.09265211 701.60263651 39 700 C39 699.34 39 698.68 39 698 C37.989375 698.226875 36.97875 698.45375 35.9375 698.6875 C30.42726308 699.39568186 25.41691215 697.94913251 20.05078125 696.7734375 C13.7983337 695.48908501 7.37697705 695.03494234 1 695 C0.67 695.33 0.34 695.66 0 696 C-15.19022345 697.15302444 -31.64798649 696.78859674 -46.21875 691.92578125 C-48.71150159 691.09603107 -50.7124493 690.72408507 -53.3125 690.5625 C-58.17251069 690.10431717 -62.44209789 688.68875012 -67 687 C-72.3748401 685.03245678 -72.3748401 685.03245678 -78 685 C-80.69246984 686.93997823 -80.69246984 686.93997823 -83.25 689.5625 C-86.68207921 692.90722359 -90.10753473 695.80625278 -94.125 698.4375 C-96.9271725 700.51540332 -97.85645401 701.46909624 -98.77734375 704.875 C-99.03294149 707.62004975 -99.12441909 710.24784973 -99 713 C-99.66 713 -100.32 713 -101 713 C-101 713.99 -101 714.98 -101 716 C-104.17613964 718.78880554 -106.03915027 720 -110.3125 720 C-118.13548614 717.87851223 -125.00052443 714.00142731 -132 710 C-136.94874494 707.21786976 -141.89799891 704.49431164 -147 702 C-147.88558594 701.5565625 -148.77117187 701.113125 -149.68359375 700.65625 C-152.05331167 699.47278663 -154.426334 698.29860781 -156.8046875 697.1328125 C-171.46645806 689.91959221 -171.46645806 689.91959221 -177 686 C-177 685.34 -177 684.68 -177 684 C-177.66 684 -178.32 684 -179 684 C-181.51982014 680.60793443 -182.54068007 678.21730456 -182 674 C-181.01053088 671.27499147 -180.37015984 670.21648337 -177.8359375 668.734375 C-177.02382812 668.40953125 -176.21171875 668.0846875 -175.375 667.75 C-174.55773437 667.41484375 -173.74046875 667.0796875 -172.8984375 666.734375 C-172.27195313 666.49203125 -171.64546875 666.2496875 -171 666 C-171 665.01 -171 664.02 -171 663 C-171.66 663 -172.32 663 -173 663 C-176.97334831 655.17267436 -176.97334831 655.17267436 -177.0625 651.25 C-175.21684496 647.34155404 -172.65844596 644.78315504 -168.75 642.9375 C-164.38733334 643.03665152 -160.84280185 645.04929666 -157 647 C-157 647.66 -157 648.32 -157 649 C-156.236875 649.28875 -155.47375 649.5775 -154.6875 649.875 C-152 651 -152 651 -149 653 C-148.855625 651.96875 -148.71125 650.9375 -148.5625 649.875 C-148.08339543 646.57450187 -147.56124917 643.28731659 -147 640 C-147.57621094 639.73960937 -148.15242188 639.47921875 -148.74609375 639.2109375 C-151.16230095 637.91280192 -153.00794479 636.4380757 -155.0625 634.625 C-156.06990234 633.74714844 -156.06990234 633.74714844 -157.09765625 632.8515625 C-158.98992125 631.00980971 -160.54512063 629.20271456 -162 627 C-162 626.34 -162 625.68 -162 625 C-162.99 624.67 -163.98 624.34 -165 624 C-166.60546875 622.00390625 -166.60546875 622.00390625 -168.1875 619.5625 C-168.98220703 618.35787109 -168.98220703 618.35787109 -169.79296875 617.12890625 C-171 615 -171 615 -171 613 C-171.66 613 -172.32 613 -173 613 C-173.51949219 611.96101562 -174.03898437 610.92203125 -174.57421875 609.8515625 C-175.07755737 608.84536865 -175.07755737 608.84536865 -175.59106445 607.81884766 C-176.32631711 606.34768748 -177.06051762 604.87600104 -177.79370117 603.40380859 C-179.35235434 600.27685755 -180.91750618 597.15745013 -182.5390625 594.0625 C-185.82209076 587.77842137 -187.97160466 581.45401566 -189.56640625 574.546875 C-190.70000354 570.0521903 -190.70000354 570.0521903 -193.6875 566.6796875 C-195.05279173 565.91704407 -196.42703386 565.17026105 -197.80859375 564.4375 C-208.22230732 557.6064009 -215.3212204 542.61719872 -219 531 C-218.57421875 528.765625 -218.57421875 528.765625 -218 527 C-218.66 527 -219.32 527 -220 527 C-219.979375 526.195625 -219.95875 525.39125 -219.9375 524.5625 C-219.70366379 522.06645115 -219.70366379 522.06645115 -221 521 C-221.28743521 515.44291926 -220.59879329 511.36065985 -219 506 C-218.8518216 504.58556986 -218.72829484 503.16841447 -218.625 501.75 C-217.22234296 487.07219595 -208.20553812 471.16232453 -200.234375 458.97265625 C-198.76404761 456.62292419 -197.48388054 454.19988044 -196.1875 451.75 C-192.86846728 445.60332383 -189.28384007 439.52846928 -185 434 C-184.34 434 -183.68 434 -183 434 C-182.91234375 433.44183594 -182.8246875 432.88367188 -182.734375 432.30859375 C-181.78547454 429.32561411 -180.23137823 427.47963246 -178.25 425.0625 C-177.53199219 424.1859375 -176.81398437 423.309375 -176.07421875 422.40625 C-174.4596791 420.53326238 -172.84182228 418.77398888 -171.0625 417.0625 C-168.78105168 415.08851102 -168.78105168 415.08851102 -168 412 C-169.0209375 411.62875 -169.0209375 411.62875 -170.0625 411.25 C-173.56865083 409.75802092 -176.71620368 407.93164489 -180 406 C-180 405.34 -180 404.68 -180 404 C-180.56203125 403.75636719 -181.1240625 403.51273437 -181.703125 403.26171875 C-184.44019785 401.75819064 -186.45795941 399.93300252 -188.75 397.8125 C-192.57681572 394.28616018 -196.47011548 390.89256183 -200.50390625 387.60546875 C-202 386 -202 386 -202.46484375 383.92578125 C-202.72974609 382.97251953 -202.72974609 382.97251953 -203 382 C-203.87978516 381.61521484 -203.87978516 381.61521484 -204.77734375 381.22265625 C-208.3350464 379.26560716 -209.67419802 375.93573605 -211.5625 372.4375 C-212.16118896 371.35202881 -212.16118896 371.35202881 -212.77197266 370.24462891 C-215.13200697 365.87792917 -217.10034056 361.60970378 -218.45703125 356.8203125 C-219.28650209 354.03949661 -220.65953292 351.56437181 -222 349 C-223.84136557 345.01037461 -224.40109468 341.34206353 -225 337 C-225.63514826 334.65789079 -226.2986716 332.32315031 -227 330 C-227.91292182 326.89606581 -228 324.22981184 -228 321 C-228.33 320.67 -228.66 320.34 -229 320 C-230.859235 311.11698833 -231.10360992 301.54724318 -228 293 C-228.0309375 291.8553125 -228.0309375 291.8553125 -228.0625 290.6875 C-227.91982591 284.55251397 -225.18328895 279.12094309 -222 274 C-221.28856912 272.01548229 -220.61008664 270.01797888 -220 268 C-219.34 268 -218.68 268 -218 268 C-216.40574406 264.51256514 -215.59547124 261.84302321 -216 258 C-216.99 256.515 -216.99 256.515 -218 255 C-218.265625 252.2578125 -218.265625 252.2578125 -218.25 249.125 C-218.25515625 248.09632813 -218.2603125 247.06765625 -218.265625 246.0078125 C-217.99472618 242.94028176 -217.22081627 240.80318198 -216 238 C-215.66073053 235.66752239 -215.32759934 233.33414529 -215 231 C-214.07195535 227.75184372 -212.97401085 224.94906126 -211.4375 221.9375 C-210.08680684 219.17738789 -209.53728202 216.99342841 -209 214 C-207.66003848 210.44279275 -206.10290692 207.00777251 -204.5 203.5625 C-202.75875553 199.76155337 -201.19373656 196.0152957 -200 192 C-199.34 192 -198.68 192 -198 192 C-197.896875 191.13375 -197.79375 190.2675 -197.6875 189.375 C-195.27048099 177.50963397 -185.53412339 165.1923515 -178 156 C-176.88715913 154.5692046 -175.78267544 153.13186181 -174.6875 151.6875 C-174.21699219 151.07261719 -173.74648437 150.45773438 -173.26171875 149.82421875 C-171.96730805 147.95273331 -170.9671706 146.05694029 -170 144 C-169.34 144 -168.68 144 -168 144 C-167.73292236 143.26225342 -167.46584473 142.52450684 -167.19067383 141.7644043 C-163.59552527 133.41749696 -156.20100608 126.9390719 -149.8125 120.6875 C-149.01908203 119.90310547 -148.22566406 119.11871094 -147.40820312 118.31054688 C-145.93959475 116.85920174 -144.46892019 115.40994167 -142.99536133 113.96362305 C-141.59420975 112.58475823 -140.22114566 111.17704777 -138.86987305 109.74926758 C-137 108 -137 108 -135 108 C-135 107.34 -135 106.68 -135 106 C-133.03897525 104.26265464 -131.07484475 102.65497023 -129 101.0625 C-128.37134033 100.57668457 -127.74268066 100.09086914 -127.0949707 99.59033203 C-114.67421063 90.08769312 -101.98585823 82.00833204 -88 75 C-87.27554688 74.62746094 -86.55109375 74.25492187 -85.8046875 73.87109375 C-83.69580598 72.85317042 -81.55356202 71.98365148 -79.375 71.125 C-78.50488281 70.78082031 -77.63476562 70.43664062 -76.73828125 70.08203125 C-75.38283203 69.54642578 -75.38283203 69.54642578 -74 69 C-71.37583987 67.94515425 -68.75223516 66.88894225 -66.12890625 65.83203125 C-64.43802729 65.17119232 -62.72226647 64.57408882 -61 64 C-60.34 64.33 -59.68 64.66 -59 65 C-59 64.34 -59 63.68 -59 63 C-55 61.66666667 -51 60.33333333 -47 59 C-46.26136719 58.74992187 -45.52273438 58.49984375 -44.76171875 58.2421875 C-43.97410156 57.97664063 -43.18648437 57.71109375 -42.375 57.4375 C-41.64023437 57.18871094 -40.90546875 56.93992188 -40.1484375 56.68359375 C-24.55555556 51.72222222 -24.55555556 51.72222222 -20 54 C-20 53.34 -20 52.68 -20 52 C-18.02 52 -16.04 52 -14 52 C-14.598125 51.319375 -15.19625 50.63875 -15.8125 49.9375 C-18.16915745 46.77284571 -19.61874612 43.65363928 -21 40 C-21.28101563 39.36578125 -21.56203125 38.7315625 -21.8515625 38.078125 C-24.8188812 30.70142617 -25.62148147 20.88550262 -23.09765625 13.28125 C-22.73542969 12.5284375 -22.37320313 11.775625 -22 11 C-21.69320312 10.34515625 -21.38640625 9.6903125 -21.0703125 9.015625 C-18.49549122 4.20645467 -18.49549122 4.20645467 -15.75 3.0625 C-15.1725 3.041875 -14.595 3.02125 -14 3 C-14 2.34 -14 1.68 -14 1 C-9.81903815 -1.09048093 -4.55292216 -0.43560068 0 0 Z M-8 13 C-11.27119162 18.40518787 -12.53593301 21.63684896 -11 28 C-10.89558594 29.09054688 -10.89558594 29.09054688 -10.7890625 30.203125 C-9.65645843 39.69251044 -3.40425856 48.47792682 3.875 54.5 C4.42929687 54.92925781 4.98359375 55.35851562 5.5546875 55.80078125 C7.69252875 57.57461169 8.90524446 59.46837782 10 62 C9.67 62.99 9.34 63.98 9 65 C4.25468613 66.00523783 -0.08190987 65.92068522 -4.875 65.5 C-10.43485272 65.08127162 -15.50708156 64.98279288 -21 66 C-21.94875 66.144375 -22.8975 66.28875 -23.875 66.4375 C-34.76162405 68.37233351 -34.76162405 68.37233351 -44.9375 72.5625 C-48.02287228 74.01073597 -50.63234459 74.59908864 -54 75 C-54 75.66 -54 76.32 -54 77 C-55.19625 77.103125 -56.3925 77.20625 -57.625 77.3125 C-61.58561034 77.80232813 -64.50970308 79.01687675 -68 81 C-70.99571476 82.63402623 -73.62618133 83.43769689 -77 84 C-77 84.66 -77 85.32 -77 86 C-77.98742187 86.24621094 -78.97484375 86.49242187 -79.9921875 86.74609375 C-84.33196314 87.99179027 -88.1607211 89.92844891 -92.125 92.0625 C-92.86419678 92.45735596 -93.60339355 92.85221191 -94.36499023 93.2590332 C-101.28404778 97.02784153 -107.65358661 101.33661336 -114 106 C-114.85078125 106.60328125 -115.7015625 107.2065625 -116.578125 107.828125 C-119.37659818 109.80681196 -119.37659818 109.80681196 -122 112 C-122 112.66 -122 113.32 -122 114 C-123.485 114.495 -123.485 114.495 -125 115 C-125 115.66 -125 116.32 -125 117 C-125.59151855 117.27078369 -126.18303711 117.54156738 -126.79248047 117.82055664 C-128.97390791 118.9860594 -130.51610248 120.19224291 -132.3203125 121.87109375 C-132.93326172 122.43981201 -133.54621094 123.00853027 -134.17773438 123.59448242 C-134.82033203 124.20267822 -135.46292969 124.81087402 -136.125 125.4375 C-136.79080078 126.06567627 -137.45660156 126.69385254 -138.14257812 127.34106445 C-146.15337671 134.9677704 -153.3997879 142.56414649 -159.13671875 152.09375 C-161.70688781 156.10256715 -164.63194598 159.79744011 -167.625 163.49755859 C-170.04073823 166.53533037 -171.76849054 169.31227554 -173 173 C-173.66 173 -174.32 173 -175 173 C-175.47179687 173.87011719 -175.47179687 173.87011719 -175.953125 174.7578125 C-177.92271901 178.35291482 -179.89656124 181.84631956 -182.1875 185.25 C-183.89077833 187.83428436 -184.90385674 190.12262393 -186 193 C-186.68273963 194.29418918 -187.37070316 195.58562955 -188.0625 196.875 C-189.98523116 200.63468993 -190.65062654 203.80751852 -191 208 C-191.66 208 -192.32 208 -193 208 C-193.12375 208.721875 -193.2475 209.44375 -193.375 210.1875 C-193.99533968 212.97902855 -194.91035864 215.36047164 -196 218 C-204.16569959 236.98832936 -204.16569959 236.98832936 -203 257 C-202.46619876 262.77045896 -203.54526251 265.58530774 -206.8125 270.3125 C-210.37857008 275.70826108 -212.57081571 280.70571577 -214 287 C-214.52400391 288.83498047 -214.52400391 288.83498047 -215.05859375 290.70703125 C-216.20283404 295.28773526 -216.26378135 299.67445816 -216.1875 304.375 C-216.18032959 305.20845947 -216.17315918 306.04191895 -216.16577148 306.90063477 C-216.07159155 314.04924041 -215.81373856 321.0594271 -214 328 C-213.55333984 329.83884766 -213.55333984 329.83884766 -213.09765625 331.71484375 C-212.75270105 333.12241958 -212.40764613 334.52997098 -212.0625 335.9375 C-211.89298828 336.64068359 -211.72347656 337.34386719 -211.54882812 338.06835938 C-210.61545632 341.85508072 -209.54318571 345.42050532 -208 349 C-207.37544922 350.56621094 -207.37544922 350.56621094 -206.73828125 352.1640625 C-200.99065941 366.115824 -193.66570065 377.32509675 -182 387 C-181.05769531 387.8146875 -180.11539063 388.629375 -179.14453125 389.46875 C-169.76301396 397.36844351 -159.40095914 402.97482024 -148.5715332 408.65063477 C-143.43029631 411.34840523 -143.43029631 411.34840523 -140.9609375 412.67578125 C-140.24599121 413.05645752 -139.53104492 413.43713379 -138.79443359 413.8293457 C-136.32887515 415.43782907 -135.1475561 417.32236909 -134 420 C-135.76142844 422.34857126 -136.67759384 422.95394198 -139.625 423.375 C-144.01244401 422.88750622 -147.85568219 421.46315102 -152 420 C-154.7144047 419.05111395 -154.7144047 419.05111395 -157 419 C-158.87640419 420.20918882 -158.87640419 420.20918882 -160 422 C-160 422.66 -160 423.32 -160 424 C-160.66 424 -161.32 424 -162 424 C-163.25835264 425.69099826 -163.25835264 425.69099826 -164.4375 427.8125 C-166.06905645 430.62041377 -167.70115877 432.72479724 -170 435 C-170.98952038 436.39506152 -171.94605043 437.81389418 -172.875 439.25 C-174.7075426 442.05537385 -176.56828433 444.80749431 -178.5625 447.5 C-180.88830699 450.72034814 -182.8075151 454.09975119 -184.69140625 457.59375 C-185.73453508 459.51186152 -186.81431281 461.41002935 -187.90625 463.30078125 C-195.35269415 476.29764072 -202.11367951 489.94548712 -205.421875 504.6015625 C-206 507 -206 507 -207 509 C-208.17661974 522.68951817 -205.04197491 534.83970828 -197 546 C-195.36875739 547.70135332 -193.71016004 549.37799254 -192 551 C-192.00523682 550.39639648 -192.01047363 549.79279297 -192.01586914 549.17089844 C-192.22449614 521.46312064 -192.22449614 521.46312064 -190 513 C-189.70136049 511.50137266 -189.4102349 510.00123632 -189.125 508.5 C-187.95758039 502.61101662 -186.50397654 496.81081846 -185 491 C-184.78601563 490.12730469 -184.57203125 489.25460937 -184.3515625 488.35546875 C-181.83618216 478.48630001 -178.76458151 467.82152304 -173.125 459.25 C-170.63516709 456.08919628 -170.63516709 456.08919628 -171 452 C-170.34 452 -169.68 452 -169 452 C-167.74164736 450.30900174 -167.74164736 450.30900174 -166.5625 448.1875 C-164.9575695 445.42540958 -163.462207 443.06930163 -161 441 C-158.9375 441.0625 -158.9375 441.0625 -157 442 C-155.77734375 443.79296875 -155.77734375 443.79296875 -155 446 C-155.5390625 448.078125 -155.5390625 448.078125 -156.625 450.25 C-157.20314453 451.44109375 -157.20314453 451.44109375 -157.79296875 452.65625 C-158.52301118 454.07380813 -159.25438981 455.49068073 -159.98828125 456.90625 C-167.69561611 471.87687574 -172.37865791 488.15603707 -175.5 504.640625 C-175.665 505.50171875 -175.83 506.3628125 -176 507.25 C-176.165 508.12140625 -176.33 508.9928125 -176.5 509.890625 C-177 512 -177 512 -178 513 C-178.0721365 515.26328256 -177.99648089 517.51004593 -177.9375 519.7734375 C-178 522 -178 522 -179 525 C-179 526.175625 -179 527.35125 -179 528.5625 C-179 532 -179 532 -180 534 C-180.09663965 536.18576146 -180.12980327 538.37460848 -180.125 540.5625 C-180.12757813 541.73941406 -180.13015625 542.91632812 -180.1328125 544.12890625 C-180.32783188 546.89672701 -180.32783188 546.89672701 -179 548 C-179 549.98049614 -179.0030105 551.96111145 -179.03125 553.94140625 C-178.99417051 556.38401796 -178.51527729 558.61684251 -178 561 C-178.061875 562.11375 -178.061875 562.11375 -178.125 563.25 C-177.96849892 566.69302367 -176.92806415 569.49690611 -175.75390625 572.71875 C-175 575 -175 575 -174.55078125 577.4140625 C-173.90857063 580.42926412 -172.83895595 583.04243611 -171.625 585.875 C-171.18027344 586.91914062 -170.73554688 587.96328125 -170.27734375 589.0390625 C-169.85582031 590.01617188 -169.43429688 590.99328125 -169 592 C-168.67128906 592.77085937 -168.34257812 593.54171875 -168.00390625 594.3359375 C-167.34003607 595.89237955 -166.67081326 597.44653772 -166 599 C-165.34 599 -164.68 599 -164 599 C-163.79375 599.804375 -163.5875 600.60875 -163.375 601.4375 C-161.59292361 606.05469793 -159.13828288 610.16242583 -156 614 C-155.34 614 -154.68 614 -154 614 C-153.79375 614.680625 -153.5875 615.36125 -153.375 616.0625 C-151.57104973 619.91639375 -149.0989655 623.07787764 -146 626 C-145.34 626 -144.68 626 -144 626 C-143.505 627.485 -143.505 627.485 -143 629 C-141.63404481 629.95616863 -140.25913299 630.90146719 -138.84765625 631.7890625 C-136.78931134 633.13808348 -134.87381988 634.60589822 -132.9375 636.125 C-132.17695313 636.71796875 -131.41640625 637.3109375 -130.6328125 637.921875 C-128.65703148 639.48139355 -126.69706243 641.05534539 -124.7421875 642.640625 C-123.59911991 643.55228596 -122.45589144 644.46374524 -121.3125 645.375 C-120.77810303 645.81602051 -120.24370605 646.25704102 -119.69311523 646.71142578 C-116.10205013 649.55164696 -113.45778464 650.34659869 -109 651 C-106.91015625 652.48828125 -106.91015625 652.48828125 -105.0625 654.3125 C-101.54478945 657.58899611 -98.26518836 659.78842085 -94 662 C-92.906875 662.5775 -91.81375 663.155 -90.6875 663.75 C-88.1917557 665.14057692 -88.1917557 665.14057692 -86 665 C-85.67 665.66 -85.34 666.32 -85 667 C-82.59849466 668.06639335 -82.59849466 668.06639335 -79.75 669 C-76.91324791 669.98136289 -74.10312377 670.95784722 -71.32421875 672.09375 C-68.5738074 673.1661793 -65.91015581 673.52487252 -63 674 C-62.0925 674.309375 -61.185 674.61875 -60.25 674.9375 C-55.90176794 676.3590374 -51.4893661 677.15335251 -47 678 C-46.20207031 678.16371094 -45.40414062 678.32742188 -44.58203125 678.49609375 C-40.58859455 679.27544826 -36.56657225 679.87253506 -32.546875 680.5 C-30 681 -30 681 -29 682 C-25.01248172 682.38335012 -21.0022037 682.47001717 -17 682.625 C-15.86820313 682.6765625 -14.73640625 682.728125 -13.5703125 682.78125 C-11.95769531 682.84699219 -11.95769531 682.84699219 -10.3125 682.9140625 C-9.31863281 682.9548291 -8.32476562 682.9955957 -7.30078125 683.03759766 C-5.03551508 683.26733471 -5.03551508 683.26733471 -4 682 C-2.57044211 681.90108803 -1.13609927 681.86920577 0.296875 681.8671875 C1.1734375 681.86589844 2.05 681.86460937 2.953125 681.86328125 C3.87609375 681.86714844 4.7990625 681.87101563 5.75 681.875 C6.6575 681.87113281 7.565 681.86726562 8.5 681.86328125 C9.38171875 681.86457031 10.2634375 681.86585938 11.171875 681.8671875 C12.3798877 681.86887939 12.3798877 681.86887939 13.61230469 681.87060547 C17.22921478 682.06661389 20.37414111 682.75819088 23.75 684.0625 C27.30728313 685.08863936 30.16216505 685.03372693 33.82421875 684.94140625 C36.80276896 685.02161855 39.24594157 685.9111862 42 687 C45.42568477 688.08692405 48.54447052 688.07037896 52.125 688 C57.77882353 687.88941176 57.77882353 687.88941176 60 689 C62.75984651 689.09898617 65.49391456 689.13983231 68.25390625 689.1328125 C69.47798439 689.13424759 69.47798439 689.13424759 70.72679138 689.13571167 C72.45254595 689.13639256 74.17830308 689.13454461 75.90405273 689.13037109 C78.55523383 689.12501468 81.20624603 689.13032267 83.85742188 689.13671875 C85.53125038 689.13605809 87.20507877 689.13477717 88.87890625 689.1328125 C89.67680069 689.13483673 90.47469513 689.13686096 91.29676819 689.13894653 C94.94795276 689.46981962 94.94795276 689.46981962 98 688 C101.64413479 687.93976637 105.27447276 687.9802015 108.91796875 688.0390625 C110.94524913 688.05971391 112.97289133 688.03350593 115 688 C115.33 687.67 115.66 687.34 116 687 C118.34987262 686.76472227 120.70556039 686.58613583 123.0625 686.4375 C124.35285156 686.35371094 125.64320313 686.26992188 126.97265625 686.18359375 C127.97167969 686.12300781 128.97070312 686.06242188 130 686 C130 685.34 130 684.68 130 684 C131.134375 684.226875 132.26875 684.45375 133.4375 684.6875 C137.79885217 685.25771212 140.7964844 684.23685185 144.84375 682.69140625 C147.88930211 681.71484334 150.81779965 682 154 682 C156.11443346 681.35471224 158.12255284 680.56350133 160.16796875 679.7265625 C162.42338187 678.83209163 164.60965005 678.40810853 167 678 C172.48702391 676.91121922 177.70390353 675.51878231 182.95703125 673.5859375 C185 673 185 673 189 673 C189 672.34 189 671.68 189 671 C189.58007812 670.96261719 190.16015625 670.92523437 190.7578125 670.88671875 C191.53898437 670.82097656 192.32015625 670.75523437 193.125 670.6875 C194.27355469 670.60048828 194.27355469 670.60048828 195.4453125 670.51171875 C198.66853619 669.86608832 201.10150939 668.54968805 204 667 C205.80123698 666.09938151 207.60247807 665.19877123 209.40380859 664.29833984 C210.75855934 663.62079668 212.11303665 662.94270661 213.46728516 662.26416016 C217.05558569 660.46716783 220.64763998 658.67881495 224.25 656.91015625 C236.52741734 650.86742128 247.89255635 643.87740497 259.21533203 636.20751953 C260.86754036 635.08962317 262.5253329 633.97999211 264.18359375 632.87109375 C265.09238281 632.25363281 266.00117187 631.63617187 266.9375 631 C267.73027344 630.46375 268.52304687 629.9275 269.33984375 629.375 C269.88769531 628.92125 270.43554688 628.4675 271 628 C271 627.34 271 626.68 271 626 C271.66 626 272.32 626 273 626 C275.04456059 623.82735345 275.04456059 623.82735345 277.125 621.125 C277.84945313 620.22007812 278.57390625 619.31515625 279.3203125 618.3828125 C281.19205234 616.21344189 281.19205234 616.21344189 281 614 C281.99 613.67 282.98 613.34 284 613 C284 612.34 284 611.68 284 611 C284.99 611 285.98 611 287 611 C288.3835924 609.71889593 289.70220368 608.36794747 291 607 C292.24193442 605.90742963 293.49288411 604.82506779 294.75 603.75 C297.68747401 601.18658635 300.56740747 598.58049825 303.375 595.875 C304.34566406 594.94300781 304.34566406 594.94300781 305.3359375 593.9921875 C307.18595253 591.77738077 308.06950336 589.71629827 309 587 C309.66 587 310.32 587 311 587 C311.92682306 585.14635387 312.85317159 583.29246921 313.77734375 581.4375 C314.63632519 579.72502582 315.50432758 578.01706126 316.37890625 576.3125 C316.83136719 575.425625 317.28382813 574.53875 317.75 573.625 C318.39195312 572.37589844 318.39195312 572.37589844 319.046875 571.1015625 C320.13767919 569.08102847 320.13767919 569.08102847 320 567 C320.66 567 321.32 567 322 567 C324.5466871 560.38603107 326.63125844 553.95776959 328 547 C325.79561167 546.12245809 325.79561167 546.12245809 323 546 C318.2597764 548.64856756 315.15607521 551.95969916 311.875 556.1875 C305.86610151 563.60699213 298.390339 571.21824655 289 574 C285.1875 573.125 285.1875 573.125 282 572 C282 572.66 282 573.32 282 574 C281.34 574 280.68 574 280 574 C279.67 574.66 279.34 575.32 279 576 C277.29296875 577.03515625 277.29296875 577.03515625 275.1875 578.0625 C274.50042969 578.40410156 273.81335938 578.74570312 273.10546875 579.09765625 C271.06507247 579.9721118 269.15329837 580.47854883 267 581 C265.76121094 581.34675781 264.52242187 581.69351563 263.24609375 582.05078125 C256.95796112 583.43826718 250.59111208 583.26312282 244.1862793 583.20581055 C242.0426873 583.18732918 239.89952348 583.18530292 237.75585938 583.18554688 C227.29588123 583.14794062 227.29588123 583.14794062 225 582 C223.64992606 581.82018043 222.29443896 581.67976633 220.9375 581.5625 C212.05933336 580.64751986 204.67032519 578.60219511 197 574 C195.33927151 573.31867549 193.672233 572.65257873 192 572 C190.948125 571.46375 189.89625 570.9275 188.8125 570.375 C186.22230854 568.85359662 186.22230854 568.85359662 184 569 C183.67 568.01 183.34 567.02 183 566 C181.01232952 564.42936896 181.01232952 564.42936896 178.625 563 C176.30381352 561.54831334 174.26025885 560.26392447 172.3359375 558.3125 C171.07435476 556.76639275 171.07435476 556.76639275 169 557 C168.59974609 556.11634766 168.59974609 556.11634766 168.19140625 555.21484375 C166.97858626 552.9601915 165.68783674 551.42042245 163.9375 549.5625 C160.68518372 545.93280525 157.84125385 542.11976873 155.0625 538.125 C154.4600647 537.26757202 154.4600647 537.26757202 153.84545898 536.39282227 C151 532.24930437 151 532.24930437 151 530 C150.34 530 149.68 530 149 530 C148.7525 529.175 148.505 528.35 148.25 527.5 C147.30914084 524.86559434 146.34541073 522.64026802 145.0625 520.1875 C142.88147339 515.89814767 141.31200802 511.6272971 140 507 C139.57847656 505.576875 139.57847656 505.576875 139.1484375 504.125 C137.16048878 496.39615263 136.65958356 488.95834679 136.5625 481 C136.54034424 480.0085498 136.51818848 479.01709961 136.49536133 477.99560547 C136.51316453 472.01474743 137.08211081 468.59285228 141 464 C142.65 464.33 144.3 464.66 146 465 C146.04898437 465.76183594 146.09796875 466.52367187 146.1484375 467.30859375 C146.55890577 472.97730206 147.17952719 478.3580451 148.5390625 483.875 C148.99912839 485.99598172 149.20807552 488.02543054 149.375 490.1875 C152.10037381 515.72689002 167.37314157 537.31659428 186 554 C187.31515019 554.70185625 188.64236567 555.38432862 190 556 C190.33 556.66 190.66 557.32 191 558 C192.54924263 558.89511796 194.14024101 559.71893351 195.75 560.5 C196.61109375 560.9228125 197.4721875 561.345625 198.359375 561.78125 C203.47362655 564.23700264 203.47362655 564.23700264 209 565 C209 565.66 209 566.32 209 567 C210.175625 567.12375 211.35125 567.2475 212.5625 567.375 C215.30883461 567.66408785 217.60907049 568.19329782 220.26171875 569.03515625 C224.42671871 570.11013534 227.98731802 570.19372062 232.25 570.0625 C239.64124894 569.88041631 239.64124894 569.88041631 243 571 C245.33299825 571.03954234 247.66708189 571.04401732 250 571 C250 570.34 250 569.68 250 569 C250.7734375 569.10699219 251.546875 569.21398437 252.34375 569.32421875 C258.326125 570.01278419 262.5628026 570.24130722 268.04296875 567.703125 C271.59632586 566.42646975 275.27799242 566.76737453 279 567 C279.33 567.66 279.66 568.32 280 569 C282.74179219 567.92286736 283.99619953 567.00484943 285.83984375 564.65234375 C287.98764124 562.01517468 290.08521923 560.2600274 292.8125 558.25 C300.38558079 552.33248192 304.97532087 546.07403738 308 537 C307.67 536.34 307.34 535.68 307 535 C307.66 534.67 308.32 534.34 309 534 C311.74021556 524.09986637 307.87126875 515.00163948 304 506 C303.34 506 302.68 506 302 506 C301.9071875 504.824375 301.9071875 504.824375 301.8125 503.625 C300.70548318 498.68600189 298.6166069 494.32840581 296 490 C295.34 489.67 294.68 489.34 294 489 C293.731875 488.175 293.46375 487.35 293.1875 486.5 C291.66071312 481.99999658 289.38405204 478.09474586 287 474 C286.34 474 285.68 474 285 474 C284.66162109 472.96746094 284.66162109 472.96746094 284.31640625 471.9140625 C282.68828432 468.30997063 280.40273187 465.42951644 277.9375 462.375 C273.12859712 456.38579137 273.12859712 456.38579137 272 453 C270.878845 451.878845 269.75259867 450.76233032 268.6015625 449.671875 C265.72865149 446.67283619 263.28741473 443.30952025 260.76953125 440.01171875 C260.18558594 439.34785156 259.60164063 438.68398438 259 438 C258.34 438 257.68 438 257 438 C256.77957031 437.46246094 256.55914063 436.92492187 256.33203125 436.37109375 C254.54948697 433.19806038 252.1640849 430.69695486 249.6875 428.0625 C249.21376953 427.55009766 248.74003906 427.03769531 248.25195312 426.50976562 C247.3066296 425.49202334 246.35534391 424.47978388 245.39794922 423.47338867 C244.03568432 422.03761 242.69906047 420.57763945 241.36328125 419.1171875 C239.09419079 416.60125967 239.09419079 416.60125967 235.5 417.0625 C232.12722203 417.89182958 232.12722203 417.89182958 229.5 419 C226.25186654 420.29925339 223.50109713 420.87268738 220 421 C217.5625 419.0625 217.5625 419.0625 216 417 C218.9563623 412.43107645 222.50979703 410.36246295 227.09765625 407.71484375 C239.50528568 400.38382179 251.14261387 391.47288239 260 380 C260 379.34 260 378.68 260 378 C260.66 378 261.32 378 262 378 C262.66 376.88625 263.32 375.7725 264 374.625 C264.37125 373.99851562 264.7425 373.37203125 265.125 372.7265625 C266.15068348 371.02527333 266.15068348 371.02527333 266 369 C266.66 369 267.32 369 268 369 C273.06092782 359.97422765 275.84905057 352.39916658 277 342 C277.59199374 338.97705326 278.28866867 335.99775346 279 333 C279.66 333 280.32 333 281 333 C284.9036292 326.42093757 285.66754776 321.14500171 285.8125 313.5625 C285.86954102 312.05526367 285.86954102 312.05526367 285.92773438 310.51757812 C286.0572092 306.75836886 286.0572092 306.75836886 286 303 C285.67 302.67 285.34 302.34 285 302 C284.92359441 299.46218833 284.90934313 296.95135894 284.9375 294.4140625 C284.94317993 293.25673111 284.94317993 293.25673111 284.94897461 292.07601929 C284.96529656 288.76920035 284.99304426 285.46250419 285.02050781 282.15576172 C285.41306476 264.20337803 285.41306476 264.20337803 281 247 C280.61781233 245.34385343 280.28604898 243.67542976 280 242 C277.78691727 230.8469395 273.73506472 220.42239544 269.69482422 209.82861328 C269.12343842 208.32486077 268.56225674 206.81723489 268.00390625 205.30859375 C265.18238004 197.8973849 261.53180333 190.88997031 257.93310547 183.83398438 C256.60805573 181.229648 255.30352048 178.61516258 254 176 C253.34 176 252.68 176 252 176 C251.773125 175.21625 251.54625 174.4325 251.3125 173.625 C248.74549161 166.53516731 245.22860675 160.22700313 241 154 C240.39800781 153.06800781 239.79601562 152.13601562 239.17578125 151.17578125 C232.99570765 141.67893859 226.51789779 132.74940229 217.76171875 125.47265625 C215.35768524 123.46307614 213.21502154 121.21502154 211 119 C209.49137159 117.57034312 207.96941741 116.15467346 206.4375 114.75 C205.32181641 113.72132813 205.32181641 113.72132813 204.18359375 112.671875 C202.03297038 111.02524387 200.64467175 110.40779519 198 110 C198 109.34 198 108.68 198 108 C191.97501011 103.39823607 185.16099163 99.96152513 178.36328125 96.6640625 C174.38203757 94.69424855 170.4762703 92.59967899 166.5625 90.5 C157.90655342 85.87827724 149.13992254 81.59400344 140 78 C139.13375 77.649375 138.2675 77.29875 137.375 76.9375 C134.82577258 75.93122602 132.38379917 75.07261065 129.6875 74.5625 C127 74 127 74 124 72.9375 C121.12368091 72.03865029 118.98448875 71.82444184 116 72 C115.67 71.34 115.34 70.68 115 70 C113.01492023 69.38440128 113.01492023 69.38440128 110.6875 69 C108.2273975 68.54457607 106.24745552 68.12910723 104.0234375 66.96875 C101.57985779 65.79885084 99.63643158 65.6589945 96.9375 65.5 C92.94819528 65.20666877 89.11356329 64.70447684 85.1875 63.9375 C81.38109336 63.19796957 77.8883531 62.90029864 74 63 C73.34 62.67 72.68 62.34 72 62 C69.70748045 62.08331211 67.41581591 62.19105342 65.125 62.3125 C58.54448602 62.40015029 58.54448602 62.40015029 56.1875 60.66796875 C55.125 59 55.125 59 54 56 C54.66 56 55.32 56 56 56 C56.66 54.88625 57.32 53.7725 58 52.625 C58.37125 51.99851563 58.7425 51.37203125 59.125 50.7265625 C60.15068348 49.02527333 60.15068348 49.02527333 60 47 C60.66 47 61.32 47 62 47 C62.66 45.88625 63.32 44.7725 64 43.625 C64.37125 42.99851562 64.7425 42.37203125 65.125 41.7265625 C66.15068348 40.02527333 66.15068348 40.02527333 66 38 C66.66 38 67.32 38 68 38 C70.66590937 33.44573816 71.31563182 30.26053037 71 25 C64.43416415 23.28717326 59.91614346 24.84154276 54 28 C45.45428758 33.70274903 40.58928404 42.07577901 36.62304688 51.33984375 C35.3124377 54.20621202 34.44721958 55.77239068 31.59765625 57.22265625 C29 57 29 57 26.44921875 55.05078125 C23.6762344 51.59671302 21.76354615 48.1424209 19.8125 44.1875 C16.62324627 37.95324388 13.25351666 31.88964357 9.5625 25.9375 C9.13751221 25.24100342 8.71252441 24.54450684 8.2746582 23.8269043 C7.24086492 22.18022972 6.12767482 20.58386086 5 19 C4.34 19 3.68 19 3 19 C3 18.34 3 17.68 3 17 C0.00893216 14.63496961 -2.02861582 13.08446819 -5.875 12.75 C-6.57625 12.8325 -7.2775 12.915 -8 13 Z M-118 662 C-116.58707905 666.8274799 -114.57025846 670.7162359 -112 675 C-111.01 675 -110.02 675 -109 675 C-109 674.34 -109 673.68 -109 673 C-108.01 673 -107.02 673 -106 673 C-105.67 672.01 -105.34 671.02 -105 670 C-108.93963055 665.44480217 -112.26928904 663.84548319 -118 662 Z " fill="#020101" transform="translate(376,83)"/>
<path d="M0 0 C1.27037109 -0.01836914 1.27037109 -0.01836914 2.56640625 -0.03710938 C7.36968551 -0.04831454 11.23830951 0.32237305 15.75 2.1875 C15.75 2.8475 15.75 3.5075 15.75 4.1875 C16.74 3.8575 17.73 3.5275 18.75 3.1875 C19.41 3.5175 20.07 3.8475 20.75 4.1875 C20.75 4.8475 20.75 5.5075 20.75 6.1875 C22.73 6.8475 24.71 7.5075 26.75 8.1875 C26.75 8.8475 26.75 9.5075 26.75 10.1875 C27.61625 10.29384766 27.61625 10.29384766 28.5 10.40234375 C34.30670504 12.42864186 38.44644141 20.238774 41.1875 25.5 C42.50178608 28.36491308 43.3142926 31.05040675 43.75 34.1875 C43.91757812 34.78433594 44.08515625 35.38117188 44.2578125 35.99609375 C44.83050012 38.54591718 44.9190207 40.88702731 44.9375 43.5 C44.95167969 44.40363281 44.96585938 45.30726563 44.98046875 46.23828125 C44.18715063 56.39006402 38.88666048 67.83032678 31.375 74.75 C21.56859169 82.56500458 11.77437985 86.35088398 -0.6875 86.4375 C-1.42548828 86.458125 -2.16347656 86.47875 -2.92382812 86.5 C-7.84155574 86.53497051 -10.89467596 85.6690947 -15.25 83.1875 C-16.27673828 82.94193359 -16.27673828 82.94193359 -17.32421875 82.69140625 C-26.42992895 80.3087762 -33.06431754 71.34658543 -38.5 64.25 C-42.45549709 57.3278801 -43.78852712 50.60129103 -43.6875 42.6875 C-43.67992676 41.85234863 -43.67235352 41.01719727 -43.66455078 40.15673828 C-43.50036235 34.03862193 -42.65991693 29.36631134 -39.25 24.1875 C-38.8375 23.45789063 -38.425 22.72828125 -38 21.9765625 C-31.850123 11.73841499 -22.77739748 4.23247292 -11.25 1.1875 C-7.77185898 -0.55157051 -3.83151473 0.00286361 0 0 Z " fill="#010101" transform="translate(478.25,320.8125)"/>
<path d="M0 0 C1.47906892 -0.02689216 2.95827483 -0.04634621 4.4375 -0.0625 C5.26121094 -0.07410156 6.08492188 -0.08570313 6.93359375 -0.09765625 C9 0 9 0 10 1 C11.3303125 0.938125 11.3303125 0.938125 12.6875 0.875 C16.67928867 1.02563353 18.55718117 1.97481245 22 4 C22.70382812 4.41378906 23.40765625 4.82757813 24.1328125 5.25390625 C29.6649786 8.69510109 34.24045108 12.63266971 38 18 C38 18.66 38 19.32 38 20 C38.66 20 39.32 20 40 20 C44.62302874 30.08660815 47.15372675 40.66357624 43.875 51.625 C40.82164924 59.52357404 36.4150589 66.45972186 30 72 C29.34 72 28.68 72 28 72 C28 72.66 28 73.32 28 74 C18.70556583 80.12587707 7.49294393 82.59741892 -3.4921875 80.53125 C-16.6212718 77.09560177 -24.12892365 69.72893689 -30.875 58.3125 C-34.07440937 52.68704842 -34.17241281 46.86214948 -34.25 40.5 C-34.27578125 39.2315625 -34.3015625 37.963125 -34.328125 36.65625 C-33.97665636 32.73988517 -32.92998135 30.38619466 -31 27 C-30.855625 26.360625 -30.71125 25.72125 -30.5625 25.0625 C-29.65050298 21.71851091 -27.76982405 18.96873712 -26 16 C-25.34 16 -24.68 16 -24 16 C-23.60167969 15.1028125 -23.60167969 15.1028125 -23.1953125 14.1875 C-19.3834967 7.21162794 -11.25412297 3.41804099 -4 1 C-1.8125 1.4375 -1.8125 1.4375 0 2 C0 1.34 0 0.68 0 0 Z " fill="#020102" transform="translate(256,314)"/>
<path d="M0 0 C0.83789062 0.40347656 1.67578125 0.80695313 2.5390625 1.22265625 C4.37081652 2.125588 6.1875495 3.05891993 8 4 C8 4.66 8 5.32 8 6 C8.7425 6.268125 9.485 6.53625 10.25 6.8125 C12.89061949 7.95276751 14.85552844 9.09380306 17 11 C17 11.66 17 12.32 17 13 C17.58652344 13.26296875 18.17304688 13.5259375 18.77734375 13.796875 C24.35124846 16.81403256 28.88412219 22.04909365 31 28 C30.73202391 31.12638771 29.79836077 32.30245884 28 35 C27.34 35 26.68 35 26 35 C25.938125 35.556875 25.87625 36.11375 25.8125 36.6875 C24.63863937 40.02848796 22.60756137 41.6191831 20 44 C19.47019531 44.49886719 18.94039063 44.99773437 18.39453125 45.51171875 C14.26619452 49.26217568 10.05839844 51.70546875 5 54 C4.00806641 54.51820313 4.00806641 54.51820313 2.99609375 55.046875 C0.46633463 56.2548226 -2.14160257 56.858303 -4.86328125 57.4921875 C-6.24350617 57.8202117 -7.61719958 58.177734 -8.98046875 58.5703125 C-17.60327961 61.0143028 -23.9844391 60.6378023 -32.08984375 56.625 C-44.37321472 49.76609755 -56.78619249 40.65521015 -62 27 C-61.14012856 21.23256963 -58.53894279 18.49149445 -54 15 C-53.67 14.34 -53.34 13.68 -53 13 C-52.01 13 -51.02 13 -50 13 C-49.67 12.01 -49.34 11.02 -49 10 C-46.73492204 8.32291542 -44.5066677 6.802825 -42.125 5.3125 C-41.16787109 4.68891602 -41.16787109 4.68891602 -40.19140625 4.05273438 C-35.38923953 1 -35.38923953 1 -32 1 C-32 0.34 -32 -0.32 -32 -1 C-19.83207793 -6.79917988 -12.00749554 -5.80636428 0 0 Z " fill="#F3A969" transform="translate(376,362)"/>
<path d="M0 0 C0.83789062 0.40347656 1.67578125 0.80695313 2.5390625 1.22265625 C4.37081652 2.125588 6.1875495 3.05891993 8 4 C8 4.66 8 5.32 8 6 C8.7425 6.268125 9.485 6.53625 10.25 6.8125 C12.89061949 7.95276751 14.85552844 9.09380306 17 11 C17 11.66 17 12.32 17 13 C17.58652344 13.26296875 18.17304688 13.5259375 18.77734375 13.796875 C24.35124846 16.81403256 28.88412219 22.04909365 31 28 C30.73202391 31.12638771 29.79836077 32.30245884 28 35 C27.34 35 26.68 35 26 35 C25.938125 35.556875 25.87625 36.11375 25.8125 36.6875 C24.63863937 40.02848796 22.60756137 41.6191831 20 44 C19.47019531 44.49886719 18.94039063 44.99773437 18.39453125 45.51171875 C14.26619452 49.26217568 10.05839844 51.70546875 5 54 C4.00806641 54.51820313 4.00806641 54.51820313 2.99609375 55.046875 C0.46633463 56.2548226 -2.14160257 56.858303 -4.86328125 57.4921875 C-6.24350617 57.8202117 -7.61719958 58.177734 -8.98046875 58.5703125 C-17.60327961 61.0143028 -23.9844391 60.6378023 -32.08984375 56.625 C-44.37321472 49.76609755 -56.78619249 40.65521015 -62 27 C-61.14012856 21.23256963 -58.53894279 18.49149445 -54 15 C-53.67 14.34 -53.34 13.68 -53 13 C-52.01 13 -51.02 13 -50 13 C-49.67 12.01 -49.34 11.02 -49 10 C-46.73492204 8.32291542 -44.5066677 6.802825 -42.125 5.3125 C-41.16787109 4.68891602 -41.16787109 4.68891602 -40.19140625 4.05273438 C-35.38923953 1 -35.38923953 1 -32 1 C-32 0.34 -32 -0.32 -32 -1 C-19.83207793 -6.79917988 -12.00749554 -5.80636428 0 0 Z M-27.375 7.25 C-28.05892822 7.59772461 -28.74285645 7.94544922 -29.44750977 8.30371094 C-34.91954139 11.19967845 -39.96273311 14.57226219 -44.9375 18.25 C-45.97559814 19.01038574 -45.97559814 19.01038574 -47.03466797 19.78613281 C-47.67162598 20.27436523 -48.30858398 20.76259766 -48.96484375 21.265625 C-49.80970337 21.91192871 -49.80970337 21.91192871 -50.67163086 22.57128906 C-52.31065866 24.33412506 -52.68231804 25.63255552 -53 28 C-48.46119492 38.44148755 -34.17118682 46.99179897 -24 51 C-11.99525911 53.67633965 1.9107052 45.83220839 12 40 C16.86334624 36.92927967 16.86334624 36.92927967 21 33 C21.49278292 29.40102359 21.19203939 28.29799216 19.1875 25.1875 C15.10406648 20.70147444 9.98646343 17.39420244 5 14 C4.04996094 13.35289062 3.09992188 12.70578125 2.12109375 12.0390625 C-7.9252294 5.41603444 -15.90989121 1.34187946 -27.375 7.25 Z " fill="#090504" transform="translate(376,362)"/>
<path d="M0 0 C8.12482792 3.6342754 12.00037662 12.0419214 16.125 19.5 C16.89263672 20.86705078 16.89263672 20.86705078 17.67578125 22.26171875 C18.66739229 24.02826489 19.65613469 25.79642524 20.64160156 27.56640625 C22.4044311 30.72454515 24.19907447 33.86345985 26 37 C30.02310606 36.47615807 32.05848951 35.45702701 35 32.6875 C35.68835938 32.06359375 36.37671875 31.4396875 37.0859375 30.796875 C38.61539377 29.36105891 40.1238617 27.90289691 41.625 26.4375 C44 25 44 25 47.0625 25.625 C52.18604651 28.02325581 52.18604651 28.02325581 54 29 C52.69248704 31.94793366 51.38472387 33.80665048 48.91796875 35.875 C48.31533203 36.38546875 47.71269531 36.8959375 47.09179688 37.421875 C46.14916992 38.20304688 46.14916992 38.20304688 45.1875 39 C44.57068359 39.52078125 43.95386719 40.0415625 43.31835938 40.578125 C42.71185547 41.08859375 42.10535156 41.5990625 41.48046875 42.125 C40.88951416 42.62290039 40.29855957 43.12080078 39.68969727 43.63378906 C38.21707302 44.82448481 36.66419762 45.91453856 35.1015625 46.984375 C32.29155431 49.67947579 32.31245297 51.41810886 32.1875 55.25 C32.13980469 56.32765625 32.09210938 57.4053125 32.04296875 58.515625 C32.02878906 59.33546875 32.01460938 60.1553125 32 61 C26.36052546 60.49631269 22.29714394 58.96609107 17.328125 56.31640625 C16.61166809 55.94495483 15.89521118 55.57350342 15.15704346 55.1907959 C12.84935435 53.99129439 10.54963913 52.77735231 8.25 51.5625 C6.66905166 50.73607111 5.08766992 49.91047077 3.50585938 49.08569336 C0.40394939 47.46633154 -2.69483698 45.8412294 -5.79101562 44.2109375 C-9.32521056 42.35125229 -12.8701098 40.51345666 -16.421875 38.6875 C-18.11472673 37.81277747 -19.80745105 36.93780825 -21.5 36.0625 C-22.24475586 35.68101807 -22.98951172 35.29953613 -23.75683594 34.90649414 C-26.94187794 33.24060809 -29.64625758 31.73556191 -32 29 C-32 28.34 -32 27.68 -32 27 C-24.33216198 28.21660896 -17.81031341 30.41840323 -10.9765625 34.0859375 C-8.08206211 35.42450092 -5.14562873 35.63704284 -2 36 C-2.2808958 32.58741486 -2.73658161 31.25786299 -5.22265625 28.82421875 C-6.62837891 27.76654297 -6.62837891 27.76654297 -8.0625 26.6875 C-15.42846579 20.92656956 -22.00240191 14.96492195 -27 7 C-27 6.01 -27 5.02 -27 4 C-16.41862275 7.85289935 -8.40033024 16.18550997 -0.57104492 23.9831543 C0.07888428 24.61648682 0.72881348 25.24981934 1.3984375 25.90234375 C1.97255371 26.47460693 2.54666992 27.04687012 3.13818359 27.63647461 C5.38905136 29.28492681 7.26118348 29.63112098 10 30 C9.00472857 24.47071427 7.05019708 19.95106756 4.4375 15 C1.78034558 9.94426878 0.11509716 5.75485823 0 0 Z " fill="#F1AC71" transform="translate(236,732)"/>
<path d="M0 0 C4.62 0 9.24 0 14 0 C14.08636719 1.09699219 14.17273438 2.19398438 14.26171875 3.32421875 C14.40248072 4.77875906 14.54447295 6.23318067 14.6875 7.6875 C14.76774414 8.7693457 14.76774414 8.7693457 14.84960938 9.87304688 C15.40690555 15.17947566 16.745277 17.51003463 21 21 C21.82757812 21.70640625 22.65515625 22.4128125 23.5078125 23.140625 C24.37148438 23.83671875 25.23515625 24.5328125 26.125 25.25 C27.55005859 26.40628906 27.55005859 26.40628906 29.00390625 27.5859375 C31.03043055 29.21878237 33.0591398 30.84891862 35.08984375 32.4765625 C36.07082031 33.26804687 37.05179688 34.05953125 38.0625 34.875 C38.96097656 35.59429688 39.85945312 36.31359375 40.78515625 37.0546875 C43 39 43 39 45 42 C45 43.32 45 44.64 45 46 C34.84372368 45.80837214 27.35673665 39.39786374 19.8515625 33.06640625 C17.38759852 31.64728775 15.79876255 31.62384631 13 32 C10.72904858 34.27095142 8.91984431 36.44439026 7 39 C5.37620894 41.12593821 3.75123685 43.25093555 2.125 45.375 C1.69735352 45.93574219 1.26970703 46.49648438 0.82910156 47.07421875 C-8.64519257 59.43012838 -8.64519257 59.43012838 -14 63 C-15.32 63 -16.64 63 -18 63 C-17.63258591 56.38654645 -15.9687792 52.57466864 -12.125 47.25 C-11.45404297 46.28126953 -11.45404297 46.28126953 -10.76953125 45.29296875 C-8.99633528 42.74563413 -7.21251237 40.25879285 -5.2421875 37.859375 C-3.74091628 35.61218915 -3.36883966 33.65564552 -3 31 C-5.89681074 31.74637996 -8.79259936 32.49626739 -11.6875 33.25 C-12.55149414 33.47453857 -13.41548828 33.69907715 -14.30566406 33.93041992 C-19.341814 35.25402343 -24.30016882 36.69729193 -29.25 38.3125 C-33.72618012 39.73595958 -37.3253146 40.43485446 -42 40 C-34.96547557 31.45807748 -23.63926449 28.34395845 -13.44140625 25.1015625 C-10.64804686 24.20743384 -7.9199455 23.24874018 -5.1875 22.1875 C-2 21 -2 21 0 21 C0 14.07 0 7.14 0 0 Z " fill="#ECAA6E" transform="translate(492,781)"/>
<path d="M0 0 C3 1.5 3 1.5 5 4 C5.84142964 6.87889142 5.89249363 9.12924024 5 12 C2.03784738 15.62233913 -1.14493438 16.85507362 -5.6875 17.625 C-9 17 -9 17 -11.5 15 C-13.50428471 10.99143058 -13.3490699 8.22355871 -12 4 C-9.0919673 -0.65285232 -5.11893745 -0.97310494 0 0 Z " fill="#F2F2F2" transform="translate(469,340)"/>
<path d="M0 0 C10.58137725 3.85289935 18.59966976 12.18550997 26.42895508 19.9831543 C27.07888428 20.61648682 27.72881348 21.24981934 28.3984375 21.90234375 C28.97255371 22.47460693 29.54666992 23.04687012 30.13818359 23.63647461 C32.38905136 25.28492681 34.26118348 25.63112098 37 26 C37 24.35 37 22.7 37 21 C37.33 21 37.66 21 38 21 C38 22.98 38 24.96 38 27 C36.741875 27.04125 35.48375 27.0825 34.1875 27.125 C33.47980469 27.14820313 32.77210938 27.17140625 32.04296875 27.1953125 C30 27 30 27 27 25 C25.89785156 25.38285156 25.89785156 25.38285156 24.7734375 25.7734375 C22 26 22 26 20.30566406 24.92285156 C18.33138911 23.22685135 16.47234765 21.45850811 14.625 19.625 C13.96105225 18.98393311 13.29710449 18.34286621 12.61303711 17.68237305 C2.96855736 8.23251551 2.96855736 8.23251551 0 3 C0 2.01 0 1.02 0 0 Z " fill="#DDA16E" transform="translate(209,736)"/>
<path d="M0 0 C2.58432692 0.58074762 3.51112479 1.3591878 5.0859375 3.46875 C5.63357128 7.69335345 5.5592105 9.74306473 3.2109375 13.34375 C0.23769652 16.31699098 -0.52201988 16.43763551 -4.8515625 16.78125 C-8.60116767 16.71319909 -8.60116767 16.71319909 -10.9140625 14.90625 C-12.32368508 11.47029495 -12.4309234 9.15138393 -11.9140625 5.46875 C-8.61250418 0.46316159 -5.62631549 -0.07680977 0 0 Z " fill="#F4F4F4" transform="translate(254.9140625,331.53125)"/>
<path d="M0 0 C0.66 0.33 1.32 0.66 2 1 C0.68 1.33 -0.64 1.66 -2 2 C-2 2.66 -2 3.32 -2 4 C-2.99 4 -3.98 4 -5 4 C-3.515 6.97 -3.515 6.97 -2 10 C-6.34941424 11.34918408 -10.70521026 12.6764928 -15.0625 14 C-16.29162109 14.3815625 -17.52074219 14.763125 -18.78710938 15.15625 C-19.98271484 15.5171875 -21.17832031 15.878125 -22.41015625 16.25 C-24.05189819 16.75273438 -24.05189819 16.75273438 -25.72680664 17.265625 C-29.24565065 18.05511428 -32.40526399 18.12731771 -36 18 C-28.92853836 9.41322515 -17.51551442 6.28609826 -7.25 3.078125 C-4.0939105 2.12660533 -4.0939105 2.12660533 -1.6875 0.796875 C-1.130625 0.53390625 -0.57375 0.2709375 0 0 Z " fill="#DA9C64" transform="translate(486,803)"/>
<path d="M0 0 C7.66783802 1.21660896 14.18968659 3.41840323 21.0234375 7.0859375 C23.91793789 8.42450092 26.85437127 8.63704284 30 9 C30.33 7.68 30.66 6.36 31 5 C31.33 6.65 31.66 8.3 32 10 C29.69 10 27.38 10 25 10 C26.80412643 13.26460973 27.83394693 14.88929795 31 17 C28 18 28 18 25.73510742 17.18310547 C24.43343628 16.53172607 24.43343628 16.53172607 23.10546875 15.8671875 C21.67170898 15.15175781 21.67170898 15.15175781 20.20898438 14.421875 C19.21189453 13.91140625 18.21480469 13.4009375 17.1875 12.875 C16.20201172 12.38773438 15.21652344 11.90046875 14.20117188 11.3984375 C8.93417144 8.73840773 4.22780822 6.14885085 0 2 C0 1.34 0 0.68 0 0 Z " fill="#E0A36E" transform="translate(204,759)"/>
<path d="M0 0 C7.75328421 3.46069338 12.23974159 11.70616542 16 19 C16 19.66 16 20.32 16 21 C12.51866169 19.60746468 11.52113967 18.36823784 10 15 C9.34 14.67 8.68 14.34 8 14 C7.34 15.32 6.68 16.64 6 18 C2.63438409 11.9394075 0.38669459 6.96050253 0 0 Z " fill="#E8A872" transform="translate(236,732)"/>
<path d="M0 0 C0.66 0.33 1.32 0.66 2 1 C0.35 2.32 -1.3 3.64 -3 5 C-1.06213915 4.52229477 0.87527674 4.04278429 2.8125 3.5625 C4.43091797 3.16224609 4.43091797 3.16224609 6.08203125 2.75390625 C8.0740843 2.23922588 10.04811524 1.65062825 12 1 C14.33299825 0.96045766 16.66708189 0.95598268 19 1 C14.13667833 3.58782254 8.93536971 5.01228801 3.6875 6.625 C2.66720703 6.94984375 1.64691406 7.2746875 0.59570312 7.609375 C-4.78634384 9.26538945 -9.36431172 10.42923437 -15 10 C-10.8687271 5.18018162 -5.96000986 2.2152249 0 0 Z " fill="#CE9F75" transform="translate(465,811)"/>
<path d="M0 0 C4.97173583 1.55366745 9.18561608 4.49754 13 8 C13.33 8.99 13.66 9.98 14 11 C13.34 11 12.68 11 12 11 C12 11.99 12 12.98 12 14 C9.00607607 13.6628464 8.01168258 13.01189576 5.859375 10.8203125 C5.16328125 9.93085937 4.4671875 9.04140625 3.75 8.125 C3.04359375 7.24070312 2.3371875 6.35640625 1.609375 5.4453125 C0 3 0 3 0 0 Z " fill="#E0A776" transform="translate(209,736)"/>
<path d="M0 0 C0.99 0.33 1.98 0.66 3 1 C2.21753906 1.51046875 1.43507813 2.0209375 0.62890625 2.546875 C-5.56489827 6.82160804 -5.56489827 6.82160804 -8.953125 13.26953125 C-9.16344628 16.22454524 -9.21486254 19.04688921 -9 22 C-15.75 21.125 -15.75 21.125 -18 20 C-18 19.34 -18 18.68 -18 18 C-15.61435923 18.57584432 -13.33317216 19.22227595 -11 20 C-11.02320313 19.24074219 -11.04640625 18.48148438 -11.0703125 17.69921875 C-11.08835937 16.70535156 -11.10640625 15.71148438 -11.125 14.6875 C-11.14820313 13.70136719 -11.17140625 12.71523438 -11.1953125 11.69921875 C-11 9 -11 9 -9 6 C-8.01 5.67 -7.02 5.34 -6 5 C-4.64631404 3.68733482 -3.31200404 2.35432675 -2 1 C-1.34 0.67 -0.68 0.34 0 0 Z " fill="#E6B285" transform="translate(277,771)"/>
<path d="M0 0 C3.16115776 1.36983503 3.9927092 1.9890638 6 5 C6 6.32 6 7.64 6 9 C0.28758534 8.61271765 -2.73688282 8.12989477 -7 4 C-5.02 3.67 -3.04 3.34 -1 3 C-0.67 2.01 -0.34 1.02 0 0 Z " fill="#CF9F72" transform="translate(531,818)"/>
<path d="M0 0 C0 0.33 0 0.66 0 1 C-0.9075 1.23460937 -1.815 1.46921875 -2.75 1.7109375 C-6.43625207 3.17303267 -7.66201272 4.47845878 -10 7.625 C-10.6703125 8.511875 -11.340625 9.39875 -12.03125 10.3125 C-13.00578125 11.6428125 -13.00578125 11.6428125 -14 13 C-15.16632691 14.54192372 -16.33295495 16.08361975 -17.5 17.625 C-18.33503194 18.74873979 -19.16907724 19.87321838 -20 21 C-20.5859375 19.09765625 -20.5859375 19.09765625 -21 17 C-19.625 15.4375 -19.625 15.4375 -18 14 C-17.67 13.01 -17.34 12.02 -17 11 C-14.9375 10.3125 -14.9375 10.3125 -13 10 C-13 9.01 -13 8.02 -13 7 C-12.34 7 -11.68 7 -11 7 C-11 6.01 -11 5.02 -11 4 C-10.34 4 -9.68 4 -9 4 C-9 3.01 -9 2.02 -9 1 C-5.8035914 -0.06546953 -3.34252724 -0.07427838 0 0 Z " fill="#D3A57D" transform="translate(510,811)"/>
<path d="M0 0 C3.58072917 0.06510417 7.16145833 0.13020833 10.7421875 0.1953125 C10.7421875 6.1353125 10.7421875 12.0753125 10.7421875 18.1953125 C10.4121875 18.1953125 10.0821875 18.1953125 9.7421875 18.1953125 C9.4121875 12.9153125 9.0821875 7.6353125 8.7421875 2.1953125 C4.1221875 2.1953125 -0.4978125 2.1953125 -5.2578125 2.1953125 C-3.2578125 0.1953125 -3.2578125 0.1953125 0 0 Z " fill="#2F1A11" transform="translate(497.2578125,778.8046875)"/>
<path d="M0 0 C2.5625 0.1875 2.5625 0.1875 4.5625 2.1875 C4.1875 4.8125 4.1875 4.8125 3.5625 7.1875 C1.1875 7.8125 1.1875 7.8125 -1.4375 8.1875 C-3.4375 6.1875 -3.4375 6.1875 -3.625 3.625 C-3.37291261 0.34786389 -3.27713611 0.25208739 0 0 Z " fill="#F9F9F9" transform="translate(493.4375,376.8125)"/>
<path d="M0 0 C6.88435072 3.66188868 14.91334528 8.13442007 19 15 C18.67 15.99 18.34 16.98 18 18 C15.96824376 15.96824376 13.93875748 13.93690165 11.9375 11.875 C9.94207047 9.83136814 9.94207047 9.83136814 7 8 C7 7.34 7 6.68 7 6 C4.525 5.01 4.525 5.01 2 4 C2 3.34 2 2.68 2 2 C1.34 2 0.68 2 0 2 C0 1.34 0 0.68 0 0 Z " fill="#DCA471" transform="translate(377,374)"/>
<path d="M0 0 C2.4375 0.1875 2.4375 0.1875 3.4375 1.1875 C3.5625 3.6875 3.5625 3.6875 3.4375 6.1875 C2.4375 7.1875 2.4375 7.1875 -0.625 7.25 C-1.594375 7.229375 -2.56375 7.20875 -3.5625 7.1875 C-4.1875 4.8125 -4.1875 4.8125 -4.5625 2.1875 C-2.5625 0.1875 -2.5625 0.1875 0 0 Z " fill="#D8D8D8" transform="translate(276.5625,366.8125)"/>
<path d="M0 0 C-0.1953125 1.88671875 -0.1953125 1.88671875 -1 4 C-3.1796875 5.08203125 -3.1796875 5.08203125 -5.875 5.8125 C-6.75929688 6.06644531 -7.64359375 6.32039062 -8.5546875 6.58203125 C-11 7 -11 7 -14 6 C-9.05602146 1.6178372 -6.72016245 0 0 0 Z " fill="#F2AC6E" transform="translate(475,810)"/>
<path d="M0 0 C3.48670834 1.1094072 6.77484237 2.26337666 10 4 C8.5741914 7.45195767 6.90253666 9.1014256 3.875 11.25 C3.15054687 11.77078125 2.42609375 12.2915625 1.6796875 12.828125 C1.12539063 13.21484375 0.57109375 13.6015625 0 14 C0 13.01 0 12.02 0 11 C0.66 11 1.32 11 2 11 C2.33 10.01 2.66 9.02 3 8 C3.99 7.34 4.98 6.68 6 6 C5.67 5.01 5.34 4.02 5 3 C2.69 3 0.38 3 -2 3 C-1.34 2.01 -0.68 1.02 0 0 Z " fill="#D5A57C" transform="translate(280,757)"/>
<path d="M0 0 C-6.47296811 4.31531207 -14.23987008 6.36706952 -22 5 C-24.29296875 3.4765625 -24.29296875 3.4765625 -26 2 C-24.68 1.67 -23.36 1.34 -22 1 C-21.67 1.99 -21.34 2.98 -21 4 C-19.98679687 3.71125 -18.97359375 3.4225 -17.9296875 3.125 C-16.57823687 2.74959705 -15.22666799 2.37461959 -13.875 2 C-12.87726563 1.71382813 -12.87726563 1.71382813 -11.859375 1.421875 C-7.8013795 0.30791545 -4.20314026 -0.20950232 0 0 Z " fill="#CA9A6E" transform="translate(374,408)"/>
<path d="M0 0 C-1.34034706 4.02104119 -3.91663705 5.16305684 -7.375 7.25 C-8.26058594 7.81460937 -8.26058594 7.81460937 -9.1640625 8.390625 C-10.72594869 9.34745618 -12.36087978 10.18250427 -14 11 C-14.99 10.67 -15.98 10.34 -17 10 C-16.01 9.67 -15.02 9.34 -14 9 C-14 8.34 -14 7.68 -14 7 C-11.69921875 5.2734375 -11.69921875 5.2734375 -8.6875 3.375 C-7.70136719 2.74335938 -6.71523438 2.11171875 -5.69921875 1.4609375 C-3 0 -3 0 0 0 Z " fill="#D6AB7E" transform="translate(395,395)"/>
<path d="M0 0 C-2.04765097 4.56783679 -5.00319623 7.11952419 -8.9375 10.125 C-9.60652344 10.64320313 -10.27554687 11.16140625 -10.96484375 11.6953125 C-13.00891969 13.00571819 -14.62801349 13.56487048 -17 14 C-13.71529745 10.60580737 -10.29302848 7.38092265 -6.8125 4.1875 C-5.95269531 3.39730469 -5.09289062 2.60710938 -4.20703125 1.79296875 C-2 0 -2 0 0 0 Z " fill="#261C13" transform="translate(286,767)"/>
<path d="M0 0 C1.64767247 0.28109113 3.29313145 0.57518526 4.9375 0.875 C5.85402344 1.03742187 6.77054688 1.19984375 7.71484375 1.3671875 C8.46894531 1.57601562 9.22304687 1.78484375 10 2 C10.33 2.66 10.66 3.32 11 4 C10.34 4 9.68 4 9 4 C9.33 5.32 9.66 6.64 10 8 C6.01328937 6.63312778 3.11505367 4.84804907 0 2 C0 1.34 0 0.68 0 0 Z " fill="#CC9A73" transform="translate(204,759)"/>
<path d="M0 0 C1.65 0 3.3 0 5 0 C5.56610454 4.83842472 3.90828272 7.04082085 1 10.8125 C0.2575 11.78832031 -0.485 12.76414062 -1.25 13.76953125 C-1.8275 14.50558594 -2.405 15.24164062 -3 16 C-3.33 14.68 -3.66 13.36 -4 12 C-3.34 12 -2.68 12 -2 12 C-2 11.01 -2 10.02 -2 9 C-1.34 9 -0.68 9 0 9 C0.12375 8.4225 0.2475 7.845 0.375 7.25 C1.00648824 4.97664233 1.88858191 3.0746471 3 1 C2.01 0.67 1.02 0.34 0 0 Z " fill="#291107" transform="translate(484,812)"/>
<path d="M0 0 C0.26039063 0.57878906 0.52078125 1.15757812 0.7890625 1.75390625 C2.08192325 4.15195442 3.54725075 5.92218697 5.375 7.9375 C8.0168515 10.88821097 10.56050498 13.87744637 13 17 C7.17942465 14.30078813 1.54324364 10.04020365 -1 4 C-0.6875 1.6875 -0.6875 1.6875 0 0 Z " fill="#C19772" transform="translate(324,386)"/>
<path d="M0 0 C0.33 0 0.66 0 1 0 C1 3.63 1 7.26 1 11 C-5.75 10.125 -5.75 10.125 -8 9 C-8 8.34 -8 7.68 -8 7 C-5.61435923 7.57584432 -3.33317216 8.22227595 -1 9 C-0.67 6.03 -0.34 3.06 0 0 Z " fill="#C09571" transform="translate(267,782)"/>
<path d="M0 0 C4.85963179 0.60745397 8.7405518 2.72758967 13 5 C12.67 5.66 12.34 6.32 12 7 C7.76570244 5.68938409 3.92592596 4.05643741 0 2 C0 1.34 0 0.68 0 0 Z " fill="#D3A174" transform="translate(222,770)"/>
<path d="M0 0 C3.16115776 1.36983503 3.9927092 1.9890638 6 5 C5.34 5 4.68 5 4 5 C3.67 6.98 3.34 8.96 3 11 C0.43383368 7.15075052 0.44902324 4.5650696 0 0 Z " fill="#BD8A63" transform="translate(236,732)"/>
<path d="M0 0 C0.78375 0.04125 1.5675 0.0825 2.375 0.125 C1.79234375 0.35960937 1.2096875 0.59421875 0.609375 0.8359375 C-2.13031734 2.41652924 -3.49483969 4.21901497 -5.375 6.75 C-5.98859375 7.56726563 -6.6021875 8.38453125 -7.234375 9.2265625 C-7.69328125 9.85304688 -8.1521875 10.47953125 -8.625 11.125 C-9.285 10.795 -9.945 10.465 -10.625 10.125 C-9.66867001 8.83184939 -8.70986149 7.54053147 -7.75 6.25 C-7.21632813 5.53070312 -6.68265625 4.81140625 -6.1328125 4.0703125 C-3.09203733 0.14723987 -3.09203733 0.14723987 0 0 Z " fill="#3C2B1D" transform="translate(507.625,811.875)"/>
<path d="M0 0 C2 2 2 2 2.125 5.125 C2.08375 6.07375 2.0425 7.0225 2 8 C-0.375 8.1875 -0.375 8.1875 -3 8 C-3.66 7.01 -4.32 6.02 -5 5 C-3.68 5 -2.36 5 -1 5 C-0.67 3.35 -0.34 1.7 0 0 Z " fill="#341A0C" transform="translate(244,754)"/>
<path d="M0 0 C2.61724095 2.36797991 4.32861729 4.89600354 6 8 C6 8.66 6 9.32 6 10 C3.54896452 9.01958581 2.23241214 8.3486182 0.75 6.125 C0 4 0 4 0 0 Z " fill="#D4A376" transform="translate(246,743)"/>
<path d="M0 0 C0.33 0.66 0.66 1.32 1 2 C-0.80831392 5.61662784 -3.05278838 8.25604436 -6 11 C-6.66 10.67 -7.32 10.34 -8 10 C-5.36 6.7 -2.72 3.4 0 0 Z " fill="#2E1E14" transform="translate(496,823)"/>
<path d="M0 0 C0.66 0.33 1.32 0.66 2 1 C2 2.65 2 4.3 2 6 C-1.375 6.125 -1.375 6.125 -5 6 C-5.66 5.34 -6.32 4.68 -7 4 C-4.69 4 -2.38 4 0 4 C0 2.68 0 1.36 0 0 Z " fill="#3C2112" transform="translate(232,762)"/>
<path d="M0 0 C0.99 0.33 1.98 0.66 3 1 C-1.455 4.465 -1.455 4.465 -6 8 C-6.66 7.34 -7.32 6.68 -8 6 C-7.01 6 -6.02 6 -5 6 C-4.34 4.68 -3.68 3.36 -3 2 C-2.01 2 -1.02 2 0 2 C0 1.34 0 0.68 0 0 Z " fill="#2F160A" transform="translate(277,757)"/>
<path d="M0 0 C4.67692308 1.47692308 4.67692308 1.47692308 6.3125 4.125 C6.539375 4.74375 6.76625 5.3625 7 6 C4.69 5.67 2.38 5.34 0 5 C0 3.35 0 1.7 0 0 Z " fill="#DC9D6B" transform="translate(239,736)"/>
<path d="M0 0 C0 0.33 0 0.66 0 1 C-0.886875 1.226875 -1.77375 1.45375 -2.6875 1.6875 C-6.43380532 3.17188513 -8.33729434 5.02403485 -11 8 C-11 6.68 -11 5.36 -11 4 C-10.34 4 -9.68 4 -9 4 C-9 3.01 -9 2.02 -9 1 C-5.8035914 -0.06546953 -3.34252724 -0.07427838 0 0 Z " fill="#DCAC7F" transform="translate(510,811)"/>
<path d="M0 0 C2.01822917 0.06510417 4.03645833 0.13020833 6.0546875 0.1953125 C6.0546875 0.5253125 6.0546875 0.8553125 6.0546875 1.1953125 C4.415 1.5975 4.415 1.5975 2.7421875 2.0078125 C-0.67697577 3.10889898 -1.72123231 3.62006176 -3.9453125 6.1953125 C-4.6053125 6.1953125 -5.2653125 6.1953125 -5.9453125 6.1953125 C-3.20430126 0.32171699 -3.20430126 0.32171699 0 0 Z " fill="#D5D5D5" transform="translate(462.9453125,339.8046875)"/>
<path d="M0 0 C0.66 0 1.32 0 2 0 C3.32 2.64 4.64 5.28 6 8 C2 7 2 7 0.75 5.125 C0 3 0 3 0 0 Z " fill="#D2A076" transform="translate(256,762)"/>
<path d="M0 0 C-1.28813342 0.83878455 -2.58063256 1.67086783 -3.875 2.5 C-4.59429687 2.9640625 -5.31359375 3.428125 -6.0546875 3.90625 C-8 5 -8 5 -10 5 C-10 4.01 -10 3.02 -10 2 C-8.68 2 -7.36 2 -6 2 C-6 1.34 -6 0.68 -6 0 C-3.50907189 -1.24546405 -2.58919267 -0.7767578 0 0 Z " fill="#2A1008" transform="translate(347,371)"/>
<path d="M0 0 C0.99 0.33 1.98 0.66 3 1 C1.3125 3.0625 1.3125 3.0625 -1 5 C-3.75 4.75 -3.75 4.75 -6 4 C-4 2.66666667 -2 1.33333333 0 0 Z " fill="#381D11" transform="translate(267,765)"/>
<path d="M0 0 C0.33 0.66 0.66 1.32 1 2 C3.01669827 3.13350534 3.01669827 3.13350534 5 4 C2 6 2 6 -1 6 C-0.67 4.02 -0.34 2.04 0 0 Z " fill="#F0B37D" transform="translate(476,836)"/>
<path d="M0 0 C0.66 0 1.32 0 2 0 C1.6875 2.375 1.6875 2.375 1 5 C0.01 5.66 -0.98 6.32 -2 7 C-2 5.35 -2 3.7 -2 2 C-1.34 2 -0.68 2 0 2 C0 1.34 0 0.68 0 0 Z " fill="#E8B282" transform="translate(487,829)"/>
<path d="M0 0 C5.75 1.75 5.75 1.75 8 4 C7.01 4.33 6.02 4.66 5 5 C5 4.34 5 3.68 5 3 C2.69 3 0.38 3 -2 3 C-1.34 2.01 -0.68 1.02 0 0 Z " fill="#D0986A" transform="translate(280,757)"/>
<path d="M0 0 C0.66 0.33 1.32 0.66 2 1 C0.02 2.32 -1.96 3.64 -4 5 C-4.99 4.34 -5.98 3.68 -7 3 C-4.69631264 1.93347808 -2.35981813 0.93578995 0 0 Z " fill="#C38B5D" transform="translate(465,811)"/>
<path d="M0 0 C2.64 1.98 5.28 3.96 8 6 C7.01 6.495 7.01 6.495 6 7 C3.5249829 5.88568235 1.32116581 4.41849022 -1 3 C-0.67 2.01 -0.34 1.02 0 0 Z " fill="#DCA575" transform="translate(511,801)"/>
<path d="M0 0 C0.99 0.33 1.98 0.66 3 1 C0.69 2.65 -1.62 4.3 -4 6 C-4.33 5.01 -4.66 4.02 -5 3 C-2.6875 1.4375 -2.6875 1.4375 0 0 Z " fill="#CAA079" transform="translate(277,771)"/>
<path d="M0 0 C3.14737182 0.69941596 6.02588876 1.76078698 9 3 C8.01 3.66 7.02 4.32 6 5 C3.98079663 3.69593116 1.98075027 2.36176581 0 1 C0 0.67 0 0.34 0 0 Z " fill="#CD9669" transform="translate(337,403)"/>
<path d="M0 0 C0.66 0.33 1.32 0.66 2 1 C1.01 1.99 0.02 2.98 -1 4 C-0.67 2.68 -0.34 1.36 0 0 Z " fill="#000000" transform="translate(232,649)"/>
</svg>
